<?xml version="1.0" encoding="utf-8"?>
<!-- Generator: Adobe Illustrator 18.1.0, SVG Export Plug-In . SVG Version: 6.00 Build 0)  -->
<!DOCTYPE svg PUBLIC "-//W3C//DTD SVG 1.1//EN" "http://www.w3.org/Graphics/SVG/1.1/DTD/svg11.dtd">
<svg version="1.1" id="Layer_1" xmlns="http://www.w3.org/2000/svg" xmlns:xlink="http://www.w3.org/1999/xlink" x="0px" y="0px"
	 width="414px" height="290px" viewBox="-213 153.3 414 290" enable-background="new -213 153.3 414 290" xml:space="preserve">
<g transform="translate(0,0) scale(2.1,2.1)">
	<g>
		<path fill="#0B5394" d="M47.1,142.1c0-27.6-22.4-50-50-50s-50,22.4-50,50s22.4,50,50,50S47.1,169.8,47.1,142.1L47.1,142.1z"/>
	</g>
</g>
<g transform="translate(0,0) scale(2.1,2.1)">
	<g>
		<path fill="none" stroke="#6FA8DC" stroke-width="3" stroke-miterlimit="10" d="M43.3,142.1c0-25.5-20.7-46.2-46.2-46.2
			s-46.2,20.7-46.2,46.2s20.7,46.2,46.2,46.2S43.3,167.7,43.3,142.1L43.3,142.1z"/>
	</g>
</g>
<g transform="matrix(1,0,0,1,176,161)">
	<g transform="translate(0,0)">
		<g transform="translate(-150.5,-164.5) translate(-25.5,3.5) matrix(1,0,0,1,0,0)">
			<g>
				<path fill="none" stroke="#FFFFFF" stroke-width="3" stroke-miterlimit="10" d="M-111,298.6H99"/>
			</g>
		</g>
	</g>
</g>
<g transform="matrix(1,0,0,1,194.5,115)">
	<g transform="translate(0,0)">
		<g transform="translate(-200.33333333333331,-152.5) translate(5.833333333333314,37.5) matrix(1,0,0,1,0,0)">
			<g>
				<g>
					<path fill="#6FA8DC" d="M-75,248.7l-6.6,42.2L-85,312l-1.7,10.5c-0.6,3.5-1.1,7-1.8,10.6l-1.4,7.3l-1.2-7.3l-10.3-61l12.9,60.5
						h-2.6c0.5-3.5,0.9-7,1.4-10.5l1.3-10.6l2.5-21.2l5-42.4L-75,248.7z"/>
				</g>
			</g>
		</g>
	</g>
</g>
<g transform="matrix(1,0,0,1,272.8333333333333,112.5)">
	<g transform="translate(0,0)">
		<g transform="translate(-279.3333333333333,-119) translate(6.5,6.5) matrix(1,0,0,1,0,0)">
			<g>
				<path fill="none" stroke="#6FA8DC" stroke-width="6" stroke-miterlimit="10" d="M-11.7,252.6l17.7,88"/>
			</g>
		</g>
	</g>
</g>
<g transform="matrix(1,0,0,1,207,106.66666666666669)">
	<g transform="translate(0,0)">
		<g transform="translate(-203.66666666666666,-116.66666666666669) translate(-3.333333333333343,10) matrix(1,0,0,1,0,0)">
			<g>
				<path fill="#CFE2F3" d="M-56.7,353.4c-1.7,0-3.2-1.2-3.5-2.9l-21.3-102.7c-0.2-0.9,0-1.9,0.5-2.7s1.3-1.4,2.3-1.5l2-0.4
					c0.2-0.1,0.5-0.1,0.7-0.1c1.7,0,3.2,1.2,3.5,2.9L-57,321l10.7-56.5c0.3-1.7,1.7-2.9,3.4-2.9c0,0,0.1,0,0.1,0
					c1.6,0,3.1,1.1,3.5,2.7l13.6,54.7l9.3-67.5c0.1-0.9,0.6-1.8,1.4-2.4c0.6-0.5,1.4-0.7,2.2-0.7c0.2,0,0.3,0,0.5,0l2,0.3
					c2,0.3,3.3,2.1,3.1,4.1L-20.5,349c-0.2,1.7-1.7,3-3.4,3.1c-0.1,0-0.1,0-0.2,0c-1.6,0-3.1-1.1-3.5-2.7L-42,291.4l-11.2,59.1
					C-53.5,352.2-55,353.4-56.7,353.4C-56.7,353.4-56.7,353.4-56.7,353.4z"/>
				<polygon fill="#CFE2F3" points="-56.7,349.8 -78,247.1 -76.1,246.7 -56.8,339.5 -42.7,265.2 -24.6,338 -12.7,252 -10.7,252.3 
					-24,348.5 -42.5,274.5 				"/>
			</g>
		</g>
	</g>
</g>
<g transform="matrix(1,0,0,1,337.3333333333333,107.5)">
	<g transform="translate(0,0)">
		<g transform="translate(-343.8333333333333,-114) translate(6.5,6.5) matrix(1,0,0,1,0,0)">
			<g>
				<g>
					<polygon fill="#6FA8DC" points="55.8,246 69.4,321.6 65.7,321.7 77.3,260.7 78.5,254.4 79.2,260.8 86,324.6 77.3,261 
						79.1,261.1 69.4,322.3 67.8,332.3 65.7,322.4 49.9,247.2 					"/>
				</g>
			</g>
		</g>
	</g>
</g>
<rect x="-114.5" y="295" transform="matrix(-0.7071 -0.7071 0.7071 -0.7071 -400.5638 431.1952)" fill="#FFFFFF" width="7.1" height="7.1"/>
<rect x="94.5" y="295" transform="matrix(-0.7071 -0.7071 0.7071 -0.7071 -43.78 578.9771)" fill="#FFFFFF" width="7.1" height="7.1"/>
<g transform="matrix(1,0,0,1,289.6666666666667,108.3333333333333)">
	<g transform="translate(0,0)">
		<g transform="translate(-296.6666666666667,-207.66666666666663) translate(7,99.33333333333333) matrix(1,0,0,1,0,0)">
			<g>
				<path fill="#CFE2F3" d="M39.9,349.3c-1.6,0-3.1-1.1-3.5-2.7L20,284.5c-3.2,21.1-7.7,50-8.8,57.2l0,0.2c-0.3,1.8-1.8,3-3.6,3
					c-0.2,0-0.4,0-0.6,0l-2-0.3c-0.9-0.1-1.8-0.7-2.4-1.4s-0.8-1.7-0.7-2.7c0.1-0.7,11.3-72.6,12-79.5l0.5-5.5
					c0.2-1.7,1.6-3.1,3.3-3.2c0.1,0,0.2,0,0.3,0c1.6,0,3.1,1.1,3.5,2.7l16.4,62.3l9.7-71.1c0.2-1.8,1.8-3.1,3.6-3.1
					c0.2,0,0.3,0,0.5,0l2,0.3c0.9,0.1,1.8,0.6,2.4,1.4s0.8,1.7,0.7,2.7l-13.5,99c-0.2,1.7-1.6,3-3.3,3.1
					C40.1,349.3,40,349.3,39.9,349.3z"/>
				<path fill="#CFE2F3" d="M39.9,345.7L19,266.6c-2.5,17.9-10.9,72.2-11.3,74.8l-2-0.3c0.1-0.7,11.3-72.7,12-79.7l0.5-5.5l21,79.7
					l12.1-89l2,0.3L39.9,345.7z"/>
			</g>
		</g>
	</g>
</g>
</svg>
